<?xml version="1.0" standalone="no"?>
<!DOCTYPE svg PUBLIC "-//W3C//DTD SVG 20010904//EN"
 "http://www.w3.org/TR/2001/REC-SVG-20010904/DTD/svg10.dtd">
<svg version="1.0" xmlns="http://www.w3.org/2000/svg"
 width="500.000000pt" height="500.000000pt" viewBox="0 0 500.000000 500.000000"
 preserveAspectRatio="xMidYMid meet">
<metadata>
Created by potrace 1.14, written by Peter Selinger 2001-2017
</metadata>
<g transform="translate(0.000000,500.000000) scale(0.100000,-0.100000)"
fill="#000000" stroke="none">
<path d="M2429 4526 c-3 -3 -24 -8 -48 -11 -106 -13 -161 -25 -161 -34 0 -4
-13 -6 -30 -5 -16 1 -30 -2 -30 -7 0 -5 -3 -8 -7 -7 -5 1 -24 -4 -43 -11 -19
-8 -37 -15 -40 -16 -44 -16 -112 -57 -147 -89 -13 -11 -23 -16 -23 -13 0 4
-40 -34 -90 -84 -49 -49 -90 -95 -90 -100 0 -6 -4 -8 -9 -4 -5 3 -12 -3 -15
-12 -3 -10 -18 -31 -33 -48 -42 -45 -83 -102 -83 -115 0 -6 -4 -8 -10 -5 -5 3
-10 1 -10 -5 0 -6 -22 -44 -50 -85 -27 -41 -50 -77 -50 -80 0 -4 -7 -13 -15
-22 -8 -8 -13 -19 -10 -24 4 -5 1 -9 -5 -9 -6 0 -8 -4 -5 -10 3 -5 2 -10 -2
-10 -7 0 -53 -79 -58 -100 -1 -3 -19 -41 -40 -85 -21 -44 -38 -86 -38 -92 0
-7 -5 -13 -10 -13 -6 0 -7 -3 -4 -6 3 -4 1 -16 -6 -28 -17 -30 -37 -88 -37
-108 0 -9 -4 -18 -8 -20 -8 -3 -45 -119 -67 -208 -2 -8 -4 -16 -5 -17 -2 -2
-3 -11 -4 -20 -1 -10 -5 -24 -9 -30 -5 -7 -5 -17 -2 -23 3 -5 1 -10 -5 -10 -6
0 -8 -4 -5 -10 3 -5 3 -15 -1 -22 -4 -7 -9 -23 -10 -35 -2 -13 -7 -47 -13 -76
-17 -88 -34 -212 -34 -257 0 -14 -5 -28 -11 -32 -7 -5 -7 -8 2 -8 8 0 10 -5 5
-12 -4 -7 -8 -63 -9 -125 -1 -61 -4 -116 -8 -121 -3 -6 0 -13 6 -15 10 -4 9
-8 -2 -16 -8 -6 -10 -11 -5 -11 6 0 10 -34 10 -81 0 -44 3 -83 8 -86 4 -2 5
-8 2 -12 -2 -5 0 -22 5 -40 5 -19 5 -31 -1 -31 -6 0 -6 -7 0 -18 5 -10 12 -38
15 -63 3 -24 8 -55 11 -69 3 -14 8 -41 11 -60 4 -19 9 -39 13 -45 3 -5 6 -12
6 -15 4 -34 31 -130 38 -130 4 0 7 -6 6 -13 -1 -6 0 -19 4 -27 3 -8 13 -39 23
-68 10 -28 22 -52 27 -52 4 0 6 -4 3 -8 -5 -9 7 -39 63 -150 50 -102 63 -126
70 -132 3 -3 12 -17 20 -32 8 -15 23 -37 33 -48 10 -11 16 -20 13 -20 -4 0 0
-6 7 -14 7 -8 24 -28 38 -46 14 -18 39 -49 57 -68 17 -20 29 -40 26 -46 -3 -5
-2 -6 4 -3 5 3 25 -12 43 -33 18 -21 38 -36 43 -33 6 3 7 1 3 -5 -4 -6 6 -19
21 -29 15 -10 35 -25 43 -34 8 -9 38 -34 65 -55 28 -21 53 -43 56 -47 3 -5 10
-9 15 -10 16 -2 64 -32 64 -39 0 -5 7 -8 15 -8 8 0 29 -8 47 -18 18 -10 53
-24 78 -32 25 -7 50 -16 55 -19 6 -3 15 -6 20 -8 6 -1 21 -4 35 -8 14 -3 39
-8 55 -10 54 -9 60 -10 74 -19 10 -7 12 -6 6 4 -6 10 -4 11 6 4 19 -11 42 -13
189 -14 159 -1 181 0 174 12 -4 6 2 5 13 -1 11 -6 23 -8 25 -5 6 5 60 15 101
17 15 1 27 5 27 9 0 4 20 10 45 14 25 3 45 11 45 16 0 5 4 7 8 4 4 -2 27 4 50
14 23 11 42 16 42 13 0 -3 8 1 18 9 18 16 55 32 60 26 2 -2 8 5 13 14 6 10 14
18 20 18 12 0 93 56 138 95 49 42 212 209 236 240 11 15 32 41 48 58 15 17 27
37 27 44 0 7 4 13 10 13 5 0 12 11 16 24 3 14 11 27 17 29 7 3 32 45 57 93 25
49 48 91 53 92 4 2 7 12 7 22 0 10 5 22 10 25 6 4 8 11 5 16 -4 5 -1 9 5 9 6
0 8 5 5 10 -3 6 -1 10 5 10 7 0 10 7 6 15 -3 8 -2 15 3 15 7 0 19 29 25 60 1
3 4 10 7 15 4 6 10 24 14 40 5 17 9 32 10 35 4 11 17 46 26 68 7 18 6 21 -3
16 -10 -6 -10 -4 -2 7 15 19 44 120 38 131 -3 4 -2 14 3 21 4 6 9 19 10 27 6
33 14 87 18 115 7 53 13 84 21 96 5 8 3 9 -6 4 -10 -6 -11 -4 -5 11 5 10 9 83
9 161 1 79 4 143 8 143 4 0 5 6 3 13 -3 6 -7 38 -9 70 -2 32 -6 60 -9 63 -3 3
-1 19 3 35 5 16 5 27 2 25 -4 -3 -9 17 -10 42 -3 44 -6 73 -16 132 -2 14 -7
42 -10 62 -3 21 -11 59 -17 85 -19 86 -22 98 -21 116 0 9 -3 17 -6 17 -4 0 -9
14 -10 31 -1 18 -6 37 -10 43 -3 6 -8 22 -10 36 -2 13 -6 27 -10 30 -4 3 -8
15 -10 26 -1 12 -13 51 -27 87 -13 36 -21 68 -17 71 3 3 1 6 -5 6 -6 0 -14 12
-18 28 -7 29 -24 71 -58 142 -12 25 -21 50 -22 55 0 6 -2 12 -5 15 -3 3 -16
28 -30 55 -13 28 -32 61 -41 75 -9 14 -17 28 -18 33 -1 9 -18 38 -77 129 -24
37 -44 72 -44 77 0 5 -7 12 -16 15 -9 4 -14 9 -11 12 3 3 -2 13 -11 23 -9 9
-26 30 -37 45 -28 40 -65 85 -97 119 -16 16 -28 30 -28 32 0 7 -125 124 -150
142 -14 9 -31 23 -39 30 -17 17 -94 58 -103 55 -5 -1 -8 3 -8 9 0 5 -4 7 -10
4 -5 -3 -10 -1 -10 6 0 7 -3 9 -7 6 -3 -4 -11 -3 -17 2 -13 9 -112 42 -141 46
-11 1 -38 6 -60 11 -22 4 -51 9 -65 10 -14 1 -25 2 -25 3 0 6 -149 5 -158 -1
-6 -4 -14 -3 -17 3 -4 5 -9 7 -11 5z"/>
</g>
</svg>
